<svg xmlns="http://www.w3.org/2000/svg" xmlns:xlink="http://www.w3.org/1999/xlink" viewBox="0,0,256,256" width="50px" height="50px" fill-rule="nonzero"><g transform="translate(49.92,49.92) scale(0.61,0.61)"><g fill-opacity="0.47843" fill="#13161c" fill-rule="nonzero" stroke="none" stroke-width="1" stroke-linecap="butt" stroke-linejoin="miter" stroke-miterlimit="10" stroke-dasharray="" stroke-dashoffset="0" font-family="none" font-weight="none" font-size="none" text-anchor="none" style="mix-blend-mode: normal"><path d="M-81.83607,337.83607v-419.67213h419.67213v419.67213z" id="bgRectangle"></path></g><g fill="#ffffff" fill-rule="nonzero" stroke="none" stroke-width="1" stroke-linecap="butt" stroke-linejoin="miter" stroke-miterlimit="10" stroke-dasharray="" stroke-dashoffset="0" font-family="none" font-weight="none" font-size="none" text-anchor="none" style="mix-blend-mode: normal"><g transform="translate(0,-0.13) scale(5.12,5.12)"><path d="M25,1.05078c-0.2175,0 -0.43414,0.06898 -0.61914,0.20898l-23,17.95117c-0.43,0.34 -0.50992,0.9682 -0.16992,1.4082c0.34,0.43 0.9682,0.50992 1.4082,0.16992l1.38086,-1.07812v26.28906c0,0.55 0.45,1 1,1h14v-18h12v18h14c0.55,0 1,-0.45 1,-1v-26.28906l1.38086,1.07812c0.19,0.14 0.39914,0.21094 0.61914,0.21094c0.3,0 0.58906,-0.13086 0.78906,-0.38086c0.34,-0.44 0.26008,-1.0682 -0.16992,-1.4082l-23,-17.95117c-0.185,-0.14 -0.40164,-0.20898 -0.61914,-0.20898zM35,5v1.05078l6,4.67969v-5.73047z"></path></g></g></g></svg>