<?xml version="1.0" encoding="UTF-8"?>
<svg id="Capa_1" xmlns="http://www.w3.org/2000/svg" viewBox="0 0 238.99 237.68">
  <path d="M207.23,160.73l27.76,48.32-65.5-26.3c-3.46,1.02-7.01,1.83-10.64,2.43-4.9.82-9.94,1.24-15.08,1.24-50.37,0-91.2-40.84-91.2-91.2,0-25.61,10.56-48.76,27.55-65.33,16.43-16.01,38.89-25.88,63.65-25.88,50.37,0,91.2,40.84,91.2,91.2,0,25.71-10.64,48.94-27.76,65.52Z" fill="none" stroke="#a8a8a8" stroke-linecap="round" stroke-linejoin="round" stroke-width="8"/>
  <path d="M158.86,185.17c-16.43,16.02-38.89,25.88-63.65,25.88-8.93,0-17.56-1.28-25.71-3.67L4,233.68l27.76-48.32c-17.12-16.58-27.76-39.81-27.76-65.52,0-45.24,32.93-82.78,76.13-89.97-17,16.57-27.55,39.71-27.55,65.33,0,50.37,40.84,91.2,91.2,91.2,5.14,0,10.17-.42,15.08-1.24Z" fill="none" stroke="#a8a8a8" stroke-linecap="round" stroke-linejoin="round" stroke-width="8"/>
  <line x1="95.07" y1="67.73" x2="192.5" y2="67.73" fill="none" stroke="#a8a8a8" stroke-linecap="round" stroke-linejoin="round" stroke-width="8"/>
  <line x1="94.64" y1="99.74" x2="192.08" y2="99.74" fill="none" stroke="#a8a8a8" stroke-linecap="round" stroke-linejoin="round" stroke-width="8"/>
  <line x1="94.22" y1="131.74" x2="191.65" y2="131.74" fill="none" stroke="#a8a8a8" stroke-linecap="round" stroke-linejoin="round" stroke-width="8"/>
</svg>