<?xml version="1.0" encoding="UTF-8"?>
<svg id="Capa_1" xmlns="http://www.w3.org/2000/svg" viewBox="0 0 260.45 174.17">
  <path d="M200.55,155.1c-7.09-2.25-12.81.81-18.9,6.46-7.87,7.31-18.73,9.24-29.21,10.8-20.61,3.07-41.04,2.55-61.02-3.98-7.42-2.42-14.17-6-19-12.54-.68-.92-2.73-1.23-4.12-1.17-14.9.62-29.71-.09-43.95-4.79-5.72-1.88-11.27-4.78-16.3-8.12C2.34,137.95-.15,132.05,0,124.97c.52-23.82,15.9-45.75,38.6-54.7,22.81-9,48.9-3.33,65.81,14.69,2.96,3.15,5.16,4.12,9.52,2.74,11.5-3.65,23.21-3.25,34.67.59,2.49.83,3.8.39,5.58-1.52,16.82-18.06,37.45-24.86,61.3-18.36,23.82,6.49,38.21,22.73,43.69,46.8.46,2.02.64,4.11.94,6.17,1.47,9.98-2.35,17.46-10.79,22.7-9.48,5.89-20.09,8.25-30.96,9.58-5.59.68-11.23.92-17.84,1.44ZM128.41,163.85c17.15.04,32.34-2.59,41.75-6.96,9.36-4.34,11.38-8.06,9.89-18.21-3.44-23.43-23.35-41.76-46.7-43.01-24.26-1.3-45.93,14.17-51.77,37.56-3.78,15.15-3.19,19.61,14,25.71,11.09,3.93,22.72,4.62,32.83,4.91ZM69.46,144.34c1.34-21.86,11.18-38.48,29.39-50.44-9.52-10.65-21.1-16.66-35.05-17.35-27.23-1.35-48.98,16.85-53.07,43.97-1.3,8.64.27,12.34,7.98,16.08,16.02,7.79,33.19,8.35,50.75,7.73ZM161.71,93.96c.6.47.96.79,1.35,1.06,16.5,11.22,25.91,26.64,27.47,46.63.19,2.42,1.35,2.89,3.27,2.76,10.35-.72,20.79-.88,31.01-2.42,6.27-.95,12.38-3.65,18.26-6.25,5.66-2.5,8.19-7.38,6.75-13.56-1.37-5.92-2.4-12.14-5.06-17.5-16.88-34.09-61.06-36.9-83.05-10.72Z" fill="#a8a8a8"/>
  <path d="M130.03,80.82c-16.92-.08-30.79-14.13-30.67-31.07.13-16.9,14.25-30.77,31.16-30.58,16.78.19,30.51,14.1,30.49,30.88-.03,16.9-14.06,30.84-30.98,30.76ZM150.71,49.84c-.1-11.26-9.54-20.51-20.79-20.36-11.12.15-20.26,9.4-20.27,20.51,0,11.27,9.33,20.58,20.6,20.54,11.25-.04,20.55-9.45,20.46-20.69Z" fill="#a8a8a8"/>
  <path d="M91.4,30.92c-.06,17.02-14.02,30.87-30.94,30.71-16.87-.17-30.47-13.9-30.5-30.78C29.94,13.79,43.7-.01,60.72,0c17.01.01,30.75,13.85,30.68,30.92ZM81.11,30.95c.07-11.41-9.01-20.63-20.35-20.66-11.35-.03-20.5,9.12-20.49,20.51,0,11.2,8.99,20.35,20.17,20.52,11.24.18,20.61-9.05,20.68-20.38Z" fill="#a8a8a8"/>
  <path d="M230.41,30.65c.08,17.02-13.69,30.94-30.67,30.98-16.81.04-30.6-13.63-30.77-30.51C168.8,14.06,182.48.1,199.45,0c17.06-.09,30.87,13.58,30.96,30.65ZM220.11,30.79c0-11.39-9.16-20.53-20.51-20.5-11.32.04-20.41,9.27-20.33,20.67.08,11.18,9.17,20.29,20.32,20.36,11.26.07,20.53-9.21,20.52-20.54Z" fill="#a8a8a8"/>
</svg>