<?xml version="1.0" encoding="UTF-8"?>
<svg id="Capa_1" xmlns="http://www.w3.org/2000/svg" xmlns:xlink="http://www.w3.org/1999/xlink" viewBox="0 0 241.6 273.97">
  <defs>
    <linearGradient id="linear-gradient" x1="-4" y1="125.99" x2="237.6" y2="125.99" gradientTransform="translate(4 11)" gradientUnits="userSpaceOnUse">
      <stop offset="0" stop-color="#8673ea"/>
      <stop offset="1" stop-color="#6bd3e0"/>
    </linearGradient>
  </defs>
  <g>
    <path d="M73.77,9.5c-14.39,6.08-27.3,14.79-38.39,25.88-11.09,11.09-19.8,24.01-25.88,38.39C3.2,88.68,0,104.5,0,120.8s3.2,32.12,9.5,47.02c11.83,27.96,33.79,50.43,61.23,62.94,8.23,3.75,17.6-2.23,17.6-11.28h0c0-4.85-2.82-9.27-7.24-11.28-33.26-15.17-56.41-48.79-56.3-87.7.16-52.95,43.05-95.72,96.01-95.72,52.94,0,96.01,43.07,96.01,96.01,0,38.77-23.11,72.25-56.27,87.39-4.42,2.02-7.26,6.43-7.26,11.29h0c0,9.05,9.36,15.03,17.59,11.28,27.29-12.44,49.34-34.8,61.24-62.94,6.3-14.9,9.5-30.72,9.5-47.02s-3.2-32.12-9.5-47.02c-6.08-14.39-14.79-27.3-25.88-38.39-11.09-11.09-24.01-19.8-38.39-25.88C152.92,3.2,137.1,0,120.8,0s-32.12,3.2-47.02,9.5Z" fill="#333"/>
    <path d="M120.8,273.97h0c6.85,0,12.4-5.55,12.4-12.4V84.6h-24.79v176.98c0,6.85,5.55,12.4,12.4,12.4Z" fill="#333"/>
    <path d="M166.02,129.81h0c-4.84,4.84-12.69,4.84-17.53,0l-27.69-27.69-27.69,27.69c-4.84,4.84-12.69,4.84-17.53,0h0c-4.84-4.84-4.84-12.69,0-17.53l39.36-39.36c3.23-3.23,8.47-3.23,11.71,0l39.36,39.36c4.84,4.84,4.84,12.69,0,17.53Z" fill="#333"/>
  </g>
  <g>
    <path d="M73.77,9.5c-14.39,6.08-27.3,14.79-38.39,25.88-11.09,11.09-19.8,24.01-25.88,38.39C3.2,88.68,0,104.5,0,120.8s3.2,32.12,9.5,47.02c11.83,27.96,33.79,50.43,61.23,62.94,8.23,3.75,17.6-2.23,17.6-11.28h0c0-4.85-2.82-9.27-7.24-11.28-33.26-15.17-56.41-48.79-56.3-87.7.16-52.95,43.05-95.72,96.01-95.72,52.94,0,96.01,43.07,96.01,96.01,0,38.77-23.11,72.25-56.27,87.39-4.42,2.02-7.26,6.43-7.26,11.29h0c0,9.05,9.36,15.03,17.59,11.28,27.29-12.44,49.34-34.8,61.24-62.94,6.3-14.9,9.5-30.72,9.5-47.02s-3.2-32.12-9.5-47.02c-6.08-14.39-14.79-27.3-25.88-38.39-11.09-11.09-24.01-19.8-38.39-25.88C152.92,3.2,137.1,0,120.8,0s-32.12,3.2-47.02,9.5Z" fill="url(#linear-gradient)"/>
    <path d="M120.8,273.97h0c6.85,0,12.4-5.55,12.4-12.4V84.6h-24.79v176.98c0,6.85,5.55,12.4,12.4,12.4Z" fill="url(#linear-gradient)"/>
    <path d="M166.02,129.81h0c-4.84,4.84-12.69,4.84-17.53,0l-27.69-27.69-27.69,27.69c-4.84,4.84-12.69,4.84-17.53,0h0c-4.84-4.84-4.84-12.69,0-17.53l39.36-39.36c3.23-3.23,8.47-3.23,11.71,0l39.36,39.36c4.84,4.84,4.84,12.69,0,17.53Z" fill="url(#linear-gradient)"/>
  </g>
</svg>