<?xml version="1.0" encoding="UTF-8"?>
<svg id="Capa_1" xmlns="http://www.w3.org/2000/svg" viewBox="0 0 223.65 223.65">
  <path d="M205.86,223.65h-45.83c-9.81,0-17.79-8.5-17.79-18.96v-72.91c0-2.17-1.66-3.94-3.7-3.94h-53.43c-2.04,0-3.7,1.77-3.7,3.94v72.91c0,10.45-7.98,18.96-17.79,18.96H17.79c-9.81,0-17.79-8.5-17.79-18.96v-98.54c0-9.91,4.07-19.27,11.16-25.68L91.35,8.03c11.84-10.7,29.03-10.7,40.88,0l80.24,72.45c7.1,6.41,11.17,15.77,11.17,25.69v98.54c0,10.45-7.98,18.96-17.79,18.96ZM85.11,112.83h53.43c9.81,0,17.79,8.5,17.79,18.96v72.91c0,2.17,1.66,3.94,3.7,3.94h45.83c2.04,0,3.7-1.77,3.7-3.94v-98.54c0-5.49-2.26-10.68-6.19-14.24L123.12,19.47c-6.56-5.92-16.09-5.92-22.65,0L20.28,91.92c-3.93,3.55-6.19,8.74-6.19,14.23v98.54c0,2.17,1.66,3.94,3.7,3.94h45.83c2.04,0,3.7-1.77,3.7-3.94v-72.91c0-10.45,7.98-18.96,17.79-18.96Z" fill="#a8a8a8"/>
</svg>