<?xml version="1.0" encoding="UTF-8"?>
<svg id="Capa_1" xmlns="http://www.w3.org/2000/svg" xmlns:xlink="http://www.w3.org/1999/xlink" viewBox="0 0 256 255.95">
  <defs>
    <linearGradient id="linear-gradient" x1="39.06" y1="194.97" x2="217.04" y2="194.97" gradientUnits="userSpaceOnUse">
      <stop offset="0" stop-color="#8673ea"/>
      <stop offset="1" stop-color="#6bd3e0"/>
    </linearGradient>
    <linearGradient id="linear-gradient-2" x1="67.77" y1="120.47" x2="188.24" y2="120.47" xlink:href="#linear-gradient"/>
    <linearGradient id="linear-gradient-3" x1="0" y1="127.98" x2="256" y2="127.98" xlink:href="#linear-gradient"/>
    <linearGradient id="linear-gradient-4" x1="210.83" y1="37.65" x2="225.88" y2="37.65" xlink:href="#linear-gradient"/>
    <linearGradient id="linear-gradient-5" x1="188.24" y1="37.65" x2="248.47" y2="37.65" xlink:href="#linear-gradient"/>
  </defs>
  <g id="_x30_02_x5F_11_x5F_add_x5F_account_x5F_4">
    <g id="Group_3">
      <g id="Group_4">
        <path id="Vector_8" d="M203.24,220.94c-16.82-25.19-44.93-40.24-75.19-40.24s-58.37,15.04-75.19,40.24c-2.32,3.46-6.99,4.38-10.45,2.09-3.46-2.31-4.39-6.99-2.08-10.44,19.63-29.4,52.43-46.94,87.72-46.94s68.09,17.54,87.72,46.94c2.31,3.46,1.37,8.13-2.08,10.44-3.47,2.3-8.13,1.37-10.45-2.09Z" fill="url(#linear-gradient)"/>
        <path id="Vector_9" d="M128,180.71c-33.21,0-60.24-27.02-60.24-60.24s27.02-60.24,60.24-60.24,60.24,27.02,60.24,60.24-27.02,60.24-60.24,60.24ZM128,75.29c-24.91,0-45.18,20.26-45.18,45.18s20.26,45.18,45.18,45.18,45.18-20.26,45.18-45.18-20.26-45.18-45.18-45.18Z" fill="url(#linear-gradient-2)"/>
        <path id="Vector_10" d="M128,255.95C57.51,255.95,0,198.85,0,127.95S56.86,0,128,0c17.03,0,34.05,3.34,49.82,10.02,3.83,1.62,5.62,6.04,4,9.87-1.62,3.85-6.07,5.59-9.87,4-13.91-5.89-28.93-8.84-43.96-8.84-63.03,0-112.94,51.11-112.94,112.9s50.5,112.9,112.94,112.9c63.16,0,112.94-51.23,112.94-112.9,0-14.6-2.75-28.82-8.17-42.25-1.55-3.85.31-8.24,4.17-9.8,3.83-1.53,8.24.31,9.8,4.17,6.14,15.24,9.26,31.35,9.26,47.88,0,70.51-57.1,128-128,128Z" fill="url(#linear-gradient-3)"/>
        <path id="Vector_11" d="M218.35,67.77c-4.16,0-7.53-3.37-7.53-7.53V15.06c0-4.16,3.37-7.53,7.53-7.53s7.53,3.37,7.53,7.53v45.18c0,4.16-3.37,7.53-7.53,7.53Z" fill="url(#linear-gradient-4)"/>
        <path id="Vector_12" d="M240.94,45.18h-45.18c-4.16,0-7.53-3.37-7.53-7.53s3.37-7.53,7.53-7.53h45.18c4.16,0,7.53,3.37,7.53,7.53s-3.37,7.53-7.53,7.53Z" fill="url(#linear-gradient-5)"/>
      </g>
    </g>
  </g>
</svg>