<?xml version="1.0" encoding="UTF-8"?>
<svg id="Capa_1" xmlns="http://www.w3.org/2000/svg" viewBox="0 0 267 267">
  <rect width="267" height="267" rx="15.04" ry="15.04" fill="#13161c"/>
  <path d="M175.31,105.73c0-5.43.61-10.68.84-16.09-.24-2.13-1.05-2.88-3.19-2.7-34.17,0-69.03,0-103.2,0-1.39.92-2.65,2.5-1.77,5.05-4.03,0-10.26.08-14.28.08-3.58.33-4.21,4.24-1.09,5.08,14.05.08,29.64-.12,43.39-.17,4.48,1.04,3.39,5.66.91,6.87-16.96,0-36.95,0-53.9,0-4.23-.41-5.45,5.11-.42,5.1,14.5,0,30.49.14,44.99.14,4.84,1.29,4.06,5.91.25,6.71h-40.09c-4.31.01-3.66,5.22-.27,5.12,15.36,0,35.58.05,50.94.05,5.29.21,4.69,5.77.14,6.75h-60.51c-5.64-.48-5.74,5.37-.42,5.11,13.89,0,29.97-.04,43.86.01,2.5,0,2.33,5.98-.22,5.98-4.65,0-13.97-.66-19.42,0-.42,6.79-.37,13.7-.79,20.49-.49,3.91,1.08,5.45,3.58,5.74h13.65c1.24-22.85,35.79-27.52,37.41,0h58.48c6.65-28.08,37.48-21.62,37.75,0,4.22,1.51,6.94-.83,7.36-4.17,1.34-10.74,1.87-19.61,1.87-31.26-6.04-9-19.55-23.99-24.11-23.92-8.39.29-13.36-.26-21.74.02h0Z" fill="#fff" fill-rule="evenodd"/>
</svg>