<?xml version="1.0" encoding="UTF-8"?>
<svg id="Capa_1" xmlns="http://www.w3.org/2000/svg" viewBox="0 0 267.51 267.51">
  <rect width="267.51" height="267.51" rx="15.14" ry="15.14" fill="#13161c"/>
  <g>
    <path d="M60.62,165.39c1.23-4.54,2.31-8.55,3.41-12.56,1.13-4.14,2.4-8.25,3.36-12.43.31-1.34.23-3.09-.38-4.28-17.79-34.39,1.88-74.75,39.98-81.86,29.75-5.55,60.15,15.84,64.46,45.77.73,5.08,2.39,7.47,7.28,9.55,25.26,10.78,35.58,40.69,23.1,65.2-.69,1.35-.84,3.3-.48,4.78,1.63,6.64,3.53,13.22,5.49,20.35-2.17-.54-3.88-.93-5.57-1.4-5.06-1.38-10.09-2.9-15.18-4.12-1.32-.32-3.06-.15-4.26.46-26.29,13.41-57.41.95-67.06-26.98-.62-1.8-1.44-2.48-3.39-2.61-7.43-.48-14.46-2.57-20.97-6.16-1.85-1.02-3.44-1.1-5.38-.54-7.88,2.27-15.79,4.42-24.39,6.82ZM72.95,153c5.11-1.39,9.58-2.74,14.11-3.77,1.29-.29,3.04-.07,4.16.6,10.52,6.31,21.78,8.46,33.83,6.31,22.69-4.04,40.74-25.23,38.57-51.24-1.89-22.69-22.05-42.19-45.22-42.72-18.75-.42-33.46,7.43-42.88,23.61-9.43,16.19-8.76,32.74.65,48.97.67,1.15.89,2.89.6,4.19-1.04,4.52-2.41,8.97-3.82,14.04ZM172.32,116.25c-5.35,27.64-21.72,43.95-49.25,49.26.28.8.52,1.6.84,2.37,9.03,21.87,35.77,30.47,56.09,17.98,1.8-1.11,3.32-1.37,5.31-.71,2.91.97,5.93,1.63,9.21,2.5-.85-3.05-1.39-5.68-2.32-8.17-1-2.66-.45-4.73.98-7.15,12.36-20.97,1.85-49.16-20.85-56.07Z" fill="#fff"/>
    <path d="M121,122.43h-8.95c0-3.19-.09-6.22.06-9.23.04-.8.71-1.72,1.34-2.32,2.61-2.51,5.34-4.91,7.99-7.38,3.5-3.26,4.42-6.8,2.76-10.5-1.53-3.41-5.17-5.49-8.83-5.04-3.97.49-6.55,3.17-7.53,7.82-.04.17-.16.32-.3.6h-8.34c.2-1.44.26-2.82.6-4.13,1.82-7.04,7.71-12.14,14.78-12.9,7.17-.76,14.2,3.18,17.34,9.72,3.1,6.47,1.87,14.09-3.14,19.37-.72.76-1.51,1.45-2.29,2.15-3.45,3.1-7.72,5.76-5.48,11.83Z" fill="#fff"/>
    <path d="M120.53,131.35v8.25h-8.33v-8.25h8.33Z" fill="#fff"/>
  </g>
</svg>